<svg width="130" height="10" viewBox="0 0 130 10" fill="none" xmlns="http://www.w3.org/2000/svg">
<path d="M3.304 10C0.98 10 0.042 8.684 0.476 6.598L1.12 3.532C1.568 1.432 2.618 0.116 4.928 0.116H8.148C10.346 0.116 11.34 1.222 11.06 3.126C11.032 3.35 10.892 3.448 10.682 3.448H9.436C9.198 3.448 9.1 3.308 9.128 3.056C9.226 2.188 8.848 1.978 7.994 1.978H4.774C3.808 1.978 3.346 2.244 3.08 3.462L2.408 6.668C2.156 7.872 2.52 8.138 3.458 8.138H6.692C7.63 8.138 8.12 7.872 8.372 6.668L8.47 6.22H6.104C5.866 6.22 5.74 6.094 5.796 5.842L6.006 4.834C6.048 4.638 6.188 4.526 6.398 4.526H10.388C10.626 4.526 10.752 4.652 10.696 4.904L10.332 6.598C9.898 8.684 8.848 10 6.524 10H3.304ZM18.4786 0.116C21.3486 0.116 22.4266 1.32 21.9226 3.686L21.8666 3.91C21.5026 5.674 20.8026 6.85 19.1646 7.256L20.2986 9.594C20.4106 9.832 20.2986 10 20.0326 10H18.6466C18.4506 10 18.3106 9.916 18.2406 9.734L17.2326 7.41H13.6766L13.2006 9.692C13.1586 9.888 13.0186 10 12.8086 10H11.5766C11.3386 10 11.2126 9.874 11.2686 9.622L13.2146 0.424C13.2566 0.228 13.3966 0.116 13.6066 0.116H18.4786ZM19.9626 3.686C20.2986 2.258 19.6966 1.978 18.1706 1.978H14.8386L14.0686 5.562H17.4146C18.8986 5.562 19.5706 5.31 19.9206 3.882L19.9626 3.686ZM30.8483 10C30.6383 10 30.5123 9.888 30.4703 9.692L30.1203 8.292H24.4503L23.4563 9.776C23.3583 9.93 23.2183 10 23.0363 10H21.5523C21.2723 10 21.1603 9.818 21.3283 9.58L27.7543 0.339999C27.8523 0.186 27.9923 0.116 28.1743 0.116H29.6723C29.8823 0.116 30.0083 0.199999 30.0643 0.409999L32.5283 9.608C32.5983 9.86 32.4863 10 32.2343 10H30.8483ZM25.5283 6.696H29.7283L28.6083 2.146L25.5283 6.696ZM33.9164 10C33.6784 10 33.5524 9.874 33.6084 9.622L35.5544 0.424C35.5964 0.228 35.7364 0.116 35.9464 0.116H37.2204C37.4024 0.116 37.5424 0.186 37.6404 0.354L41.5744 7.256L43.0304 0.424C43.0724 0.228 43.2124 0.116 43.4224 0.116H44.6544C44.8924 0.116 45.0184 0.242 44.9624 0.494L43.0164 9.692C42.9744 9.888 42.8344 10 42.6244 10H41.3644C41.1824 10 41.0424 9.93 40.9444 9.762L36.9824 2.804L35.5404 9.692C35.4984 9.888 35.3584 10 35.1484 10H33.9164ZM45.1 10C44.862 10 44.736 9.874 44.792 9.622L46.738 0.424C46.78 0.228 46.92 0.116 47.13 0.116H52.926C55.236 0.116 56.216 1.348 55.684 3.826L55.152 6.346C54.634 8.81 53.612 10 51.302 10H45.1ZM47.046 8.152H51.246C52.296 8.152 52.898 7.858 53.234 6.318L53.766 3.84C54.088 2.3 53.64 1.978 52.548 1.978H48.362L47.046 8.152ZM59.8383 10C59.6003 10 59.4743 9.874 59.5303 9.622L61.4763 0.424C61.5183 0.228 61.6583 0.116 61.8683 0.116H63.1003C63.3383 0.116 63.4643 0.242 63.4083 0.494L61.7843 8.138H67.4683C67.7063 8.138 67.8323 8.264 67.7763 8.516L67.5383 9.692C67.4963 9.888 67.3563 10 67.1463 10H59.8383ZM71.8164 10C69.4924 10 68.5544 8.684 68.9884 6.598L69.6324 3.532C70.0804 1.432 71.1304 0.116 73.4404 0.116H77.0524C79.3624 0.116 80.3284 1.432 79.8664 3.532L79.2224 6.598C78.7884 8.684 77.7384 10 75.4144 10H71.8164ZM71.9704 8.138H75.5824C76.6044 8.138 77.0384 7.76 77.2764 6.668L77.9484 3.462C78.1864 2.342 77.9344 1.978 76.8844 1.978H73.2864C72.2504 1.978 71.8444 2.342 71.5924 3.462L70.9204 6.668C70.6824 7.76 70.9484 8.138 71.9704 8.138ZM83.3392 10C81.0152 10 80.0772 8.684 80.5112 6.598L81.1552 3.532C81.6032 1.432 82.6532 0.116 84.9632 0.116H88.1832C90.3812 0.116 91.3752 1.222 91.0952 3.126C91.0672 3.35 90.9272 3.448 90.7172 3.448H89.4712C89.2332 3.448 89.1352 3.308 89.1632 3.056C89.2612 2.188 88.8832 1.978 88.0292 1.978H84.8092C83.8432 1.978 83.3812 2.244 83.1152 3.462L82.4432 6.668C82.1912 7.872 82.5552 8.138 83.4932 8.138H86.7272C87.6652 8.138 88.1552 7.872 88.4072 6.668L88.5052 6.22H86.1392C85.9012 6.22 85.7752 6.094 85.8312 5.842L86.0412 4.834C86.0832 4.638 86.2232 4.526 86.4332 4.526H90.4232C90.6612 4.526 90.7872 4.652 90.7312 4.904L90.3672 6.598C89.9332 8.684 88.8832 10 86.5592 10H83.3392ZM91.6117 10C91.3737 10 91.2477 9.874 91.3037 9.622L93.2497 0.424C93.2917 0.228 93.4317 0.116 93.6417 0.116H94.8597C95.0977 0.116 95.2237 0.242 95.1677 0.494L93.2217 9.692C93.1797 9.888 93.0397 10 92.8297 10H91.6117ZM98.1031 10C95.8631 10 94.8831 8.992 95.1911 6.99C95.2191 6.78 95.3591 6.668 95.5691 6.668H96.8151C97.0531 6.668 97.1511 6.808 97.1371 7.046C97.0531 7.844 97.3751 8.138 98.2571 8.138H101.001C102.065 8.138 102.499 7.872 102.681 7.06C102.849 6.276 102.541 6.08 101.631 6.01L98.7611 5.772C96.6471 5.604 95.6951 4.792 96.0871 2.944C96.4931 1.054 97.3891 0.116 99.8391 0.116H102.387C104.627 0.116 105.607 1.124 105.299 3.126C105.271 3.336 105.131 3.448 104.921 3.448H103.675C103.437 3.448 103.339 3.308 103.353 3.07C103.437 2.272 103.115 1.978 102.219 1.978H99.6991C98.6211 1.978 98.2011 2.23 98.0191 3.056C97.8511 3.826 98.1451 4.008 99.0971 4.092L101.967 4.302C104.067 4.456 104.991 5.296 104.599 7.13C104.193 9.02 103.311 10 100.861 10H98.1031ZM108.383 10C108.145 10 108.019 9.874 108.075 9.622L109.699 1.992H106.717C106.479 1.992 106.353 1.866 106.409 1.614L106.647 0.424C106.689 0.228 106.829 0.116 107.039 0.116H115.019C115.257 0.116 115.383 0.242 115.327 0.494L115.089 1.684C115.047 1.88 114.907 1.992 114.697 1.992H111.645L110.007 9.692C109.965 9.888 109.825 10 109.615 10H108.383ZM114.827 10C114.589 10 114.463 9.874 114.519 9.622L116.465 0.424C116.507 0.228 116.647 0.116 116.857 0.116H118.075C118.313 0.116 118.439 0.242 118.383 0.494L116.437 9.692C116.395 9.888 116.255 10 116.045 10H114.827ZM121.486 10C119.162 10 118.238 8.684 118.672 6.598L119.316 3.532C119.764 1.432 120.828 0.116 123.138 0.116H126.26C128.584 0.116 129.522 1.432 129.074 3.532L129.06 3.602C129.018 3.812 128.892 3.924 128.682 3.924H127.45C127.212 3.924 127.072 3.84 127.1 3.686L127.142 3.462C127.408 2.244 127.058 1.978 126.092 1.978H122.97C122.004 1.978 121.542 2.244 121.276 3.462L120.604 6.668C120.352 7.872 120.716 8.138 121.654 8.138H124.776C125.728 8.138 126.218 7.872 126.47 6.668L126.526 6.36C126.568 6.164 126.708 6.052 126.918 6.052H128.15C128.388 6.052 128.514 6.15 128.486 6.318L128.43 6.598C127.996 8.684 127.03 10 124.706 10H121.486Z" fill="white"/>
</svg>
