<svg width="436" height="491" viewBox="0 0 436 491" fill="none" xmlns="http://www.w3.org/2000/svg">
<path d="M30.1103 88.8318C50.9524 68.0059 84.744 68.0059 105.586 88.8318L261.172 244.296C282.014 265.122 282.014 298.887 261.172 319.713L105.586 475.178C84.744 496.004 50.9524 496.004 30.1103 475.178C9.26824 454.352 9.26824 420.587 30.1103 399.761L147.958 282.005L30.1103 164.249C9.26824 143.423 9.26824 109.658 30.1103 88.8318Z" fill="white"/>
<g filter="url(#filter0_i_236_1155)">
<path d="M5.29884 208.662C12.364 201.602 23.8187 201.602 30.8838 208.662L91.4899 269.221C98.555 276.28 98.555 287.726 91.4899 294.786L30.8838 355.345C23.8187 362.404 12.364 362.404 5.29884 355.345C-1.76628 348.285 -1.76628 336.839 5.29884 329.78L53.1124 282.003L5.29884 234.227C-1.76628 227.167 -1.76628 215.722 5.29884 208.662Z" fill="white"/>
</g>
<path d="M179.878 270.895C150.975 242.015 150.975 195.191 179.878 166.311L297.221 283.563L244.888 335.855L179.878 270.895Z" fill="black" fill-opacity="0.25"/>
<path d="M405.896 401.966C385.054 422.791 351.262 422.791 330.42 401.966L174.834 246.501C153.992 225.675 153.992 191.91 174.834 171.084L330.42 15.6196C351.262 -5.20627 385.054 -5.20627 405.896 15.6196C426.738 36.4454 426.738 70.2107 405.896 91.0366L288.048 208.793L405.896 326.549C426.738 347.374 426.738 381.14 405.896 401.966Z" fill="#FEC601"/>
<g filter="url(#filter1_i_236_1155)">
<path d="M405.116 135.45C412.181 128.391 423.636 128.391 430.701 135.45C437.766 142.51 437.766 153.956 430.701 161.016L382.887 208.792L430.701 256.568C437.766 263.628 437.766 275.074 430.701 282.133C423.636 289.193 412.181 289.193 405.116 282.133L344.51 221.574C337.445 214.515 337.445 203.069 344.51 196.009L405.116 135.45Z" fill="#FEC601"/>
</g>
<defs>
<filter id="filter0_i_236_1155" x="0" y="203.367" width="104.006" height="157.272" filterUnits="userSpaceOnUse" color-interpolation-filters="sRGB">
<feFlood flood-opacity="0" result="BackgroundImageFix"/>
<feBlend mode="normal" in="SourceGraphic" in2="BackgroundImageFix" result="shape"/>
<feColorMatrix in="SourceAlpha" type="matrix" values="0 0 0 0 0 0 0 0 0 0 0 0 0 0 0 0 0 0 127 0" result="hardAlpha"/>
<feOffset dx="21.6528"/>
<feGaussianBlur stdDeviation="3.60881"/>
<feComposite in2="hardAlpha" operator="arithmetic" k2="-1" k3="1"/>
<feColorMatrix type="matrix" values="0 0 0 0 0 0 0 0 0 0 0 0 0 0 0 0 0 0 0.25 0"/>
<feBlend mode="normal" in2="shape" result="effect1_innerShadow_236_1155"/>
</filter>
<filter id="filter1_i_236_1155" x="331.993" y="130.156" width="104.006" height="157.272" filterUnits="userSpaceOnUse" color-interpolation-filters="sRGB">
<feFlood flood-opacity="0" result="BackgroundImageFix"/>
<feBlend mode="normal" in="SourceGraphic" in2="BackgroundImageFix" result="shape"/>
<feColorMatrix in="SourceAlpha" type="matrix" values="0 0 0 0 0 0 0 0 0 0 0 0 0 0 0 0 0 0 127 0" result="hardAlpha"/>
<feOffset dx="-21.6528"/>
<feGaussianBlur stdDeviation="3.60881"/>
<feComposite in2="hardAlpha" operator="arithmetic" k2="-1" k3="1"/>
<feColorMatrix type="matrix" values="0 0 0 0 0 0 0 0 0 0 0 0 0 0 0 0 0 0 0.25 0"/>
<feBlend mode="normal" in2="shape" result="effect1_innerShadow_236_1155"/>
</filter>
</defs>
</svg>
