<svg width="1361" height="106" viewBox="0 0 1361 106" fill="none" xmlns="http://www.w3.org/2000/svg">
<path d="M5.013 106C1.884 106 0.394 104.063 0.99 101.083L21.403 4.829C21.999 2.29599 23.638 0.805996 26.32 0.805996H43.604C46.733 0.805996 48.223 2.743 47.627 5.72299L27.214 101.977C26.618 104.51 24.979 106 22.297 106H5.013ZM79.1754 106C56.5274 106 45.2034 94.676 47.7364 74.71C48.1834 71.879 49.9714 70.538 52.6534 70.538H70.3844C73.2154 70.538 74.4074 72.177 74.5564 75.157C74.8544 78.882 77.0894 80.67 81.5594 80.67H111.508C118.064 80.67 121.342 78.882 122.534 73.518C123.577 68.005 121.64 66.217 115.68 65.77L85.4334 63.386C63.0834 61.598 52.9514 51.466 57.1234 31.649C61.4444 11.385 71.1294 0.805996 96.3104 0.805996H124.322C146.97 0.805996 158.443 12.13 155.91 32.096C155.463 34.927 153.675 36.268 150.993 36.268H133.262C130.431 36.268 129.239 34.629 129.09 31.649C128.792 27.924 126.408 26.136 121.938 26.136H94.2244C87.6684 26.136 84.5394 27.924 83.3474 33.288C82.1554 38.652 84.2414 40.44 90.2014 40.887L120.448 42.973C142.649 44.463 152.781 54.893 148.609 74.561C144.288 94.825 134.603 106 109.422 106H79.1754ZM192.724 106C168.884 106 157.709 91.1 162.179 69.793L169.033 37.162C173.652 15.706 185.274 0.805996 209.114 0.805996H248.301C272.141 0.805996 283.465 15.706 278.846 37.162L271.992 69.793C267.522 91.1 255.751 106 231.911 106H192.724ZM195.108 80.67H234.295C240.851 80.67 243.682 78.137 245.321 70.687L252.622 36.268C254.261 28.52 252.771 26.136 245.917 26.136H206.73C200.025 26.136 197.492 28.52 195.853 36.268L188.552 70.687C186.913 78.137 188.552 80.67 195.108 80.67ZM320.702 106C317.573 106 316.083 104.063 316.679 101.083L320.255 83.948C320.702 81.564 321.894 80.223 323.98 79.031L389.54 43.867C397.735 39.546 401.907 37.609 402.801 33.288C403.993 27.477 401.609 26.136 394.457 26.136H367.935C362.273 26.136 358.995 27.179 357.058 36.268L356.76 37.311C356.164 39.844 354.674 41.334 351.992 41.334H334.41C331.43 41.334 329.642 40.44 329.94 39.248L330.238 37.162C334.857 15.706 343.499 0.805996 370.319 0.805996H397.586C422.767 0.805996 433.346 12.875 429.472 31.202C425.598 49.082 417.105 53.85 393.861 66.217L366.743 80.67H413.529C416.658 80.67 418.148 82.607 417.552 85.587L414.125 101.977C413.529 104.51 411.89 106 409.208 106H320.702ZM430.415 106C427.286 106 425.796 104.063 426.392 101.083L429.968 83.948C430.415 81.564 431.607 80.223 433.693 79.031L499.253 43.867C507.448 39.546 511.62 37.609 512.514 33.288C513.706 27.477 511.322 26.136 504.17 26.136H477.648C471.986 26.136 468.708 27.179 466.771 36.268L466.473 37.311C465.877 39.844 464.387 41.334 461.705 41.334H444.123C441.143 41.334 439.355 40.44 439.653 39.248L439.951 37.162C444.57 15.706 453.212 0.805996 480.032 0.805996H507.299C532.48 0.805996 543.059 12.875 539.185 31.202C535.311 49.082 526.818 53.85 503.574 66.217L476.456 80.67H523.242C526.371 80.67 527.861 82.607 527.265 85.587L523.838 101.977C523.242 104.51 521.603 106 518.921 106H430.415ZM574.1 106C550.26 106 539.085 91.249 543.555 69.793L550.409 37.162C554.879 15.557 566.65 0.805996 590.49 0.805996H626.697C650.537 0.805996 661.712 15.557 657.242 37.162L650.388 69.793C645.918 91.1 634.147 106 610.307 106H574.1ZM576.484 80.67H612.691C617.906 80.67 621.78 79.627 623.717 70.687L631.018 36.268C632.955 27.179 629.975 26.136 624.313 26.136H588.106C582.444 26.136 579.166 27.179 577.229 36.268L569.928 70.687C567.991 79.627 571.269 80.67 576.484 80.67ZM695.89 106C672.05 106 660.875 91.249 665.345 69.793L672.199 37.162C676.669 15.557 688.44 0.805996 712.28 0.805996H748.487C772.327 0.805996 783.502 15.557 779.032 37.162L772.178 69.793C767.708 91.1 755.937 106 732.097 106H695.89ZM698.274 80.67H734.481C739.696 80.67 743.57 79.627 745.507 70.687L752.808 36.268C754.745 27.179 751.765 26.136 746.103 26.136H709.896C704.234 26.136 700.956 27.179 699.019 36.268L691.718 70.687C689.781 79.627 693.059 80.67 698.274 80.67ZM817.68 106C793.84 106 782.665 91.249 787.135 69.793L793.989 37.162C798.459 15.557 810.23 0.805996 834.07 0.805996H870.277C894.117 0.805996 905.292 15.557 900.822 37.162L893.968 69.793C889.498 91.1 877.727 106 853.887 106H817.68ZM820.064 80.67H856.271C861.486 80.67 865.36 79.627 867.297 70.687L874.598 36.268C876.535 27.179 873.555 26.136 867.893 26.136H831.686C826.024 26.136 822.746 27.179 820.809 36.268L813.508 70.687C811.571 79.627 814.849 80.67 820.064 80.67ZM920.249 49.231C917.12 49.231 915.63 47.443 916.226 44.314L920.1 26.136C920.696 23.603 922.335 22.262 925.017 22.262H942.301C945.43 22.262 946.92 24.05 946.324 27.179L942.45 45.357C941.854 47.89 940.215 49.231 937.533 49.231H920.249ZM908.18 106C905.051 106 903.561 104.212 904.157 101.083L908.031 82.905C908.627 80.372 910.266 79.031 912.948 79.031H930.232C933.361 79.031 934.851 80.819 934.255 83.948L930.381 102.126C929.785 104.659 928.146 106 925.464 106H908.18Z" fill="#FEC601"/>
<path d="M950.605 106C947.476 106 945.986 104.063 946.582 101.083L950.158 83.948C950.605 81.564 951.797 80.223 953.883 79.031L1019.44 43.867C1027.64 39.546 1031.81 37.609 1032.7 33.288C1033.9 27.477 1031.51 26.136 1024.36 26.136H997.838C992.176 26.136 988.898 27.179 986.961 36.268L986.663 37.311C986.067 39.844 984.577 41.334 981.895 41.334H964.313C961.333 41.334 959.545 40.44 959.843 39.248L960.141 37.162C964.76 15.706 973.402 0.805996 1000.22 0.805996H1027.49C1052.67 0.805996 1063.25 12.875 1059.38 31.202C1055.5 49.082 1047.01 53.85 1023.76 66.217L996.646 80.67H1043.43C1046.56 80.67 1048.05 82.607 1047.46 85.587L1044.03 101.977C1043.43 104.51 1041.79 106 1039.11 106H950.605ZM1094.29 106C1070.45 106 1059.28 91.249 1063.75 69.793L1070.6 37.162C1075.07 15.557 1086.84 0.805996 1110.68 0.805996H1146.89C1170.73 0.805996 1181.9 15.557 1177.43 37.162L1170.58 69.793C1166.11 91.1 1154.34 106 1130.5 106H1094.29ZM1096.67 80.67H1132.88C1138.1 80.67 1141.97 79.627 1143.91 70.687L1151.21 36.268C1153.15 27.179 1150.17 26.136 1144.5 26.136H1108.3C1102.63 26.136 1099.36 27.179 1097.42 36.268L1090.12 70.687C1088.18 79.627 1091.46 80.67 1096.67 80.67ZM1198.65 106C1195.52 106 1194.03 104.063 1194.62 101.083L1207.74 39.397H1191.05C1187.92 39.397 1186.43 37.46 1187.03 34.48L1189.86 21.07C1190.45 18.537 1192.09 17.047 1194.77 17.047H1200.14C1213.55 17.047 1214.14 16.004 1216.53 4.38199C1216.97 1.998 1218.61 0.805996 1221.3 0.805996H1237.39C1240.52 0.805996 1242.01 2.743 1241.41 5.72299L1221 101.977C1220.4 104.51 1218.76 106 1216.08 106H1198.65ZM1268.45 106C1264.28 106 1263.23 103.02 1266.51 100.487L1294.97 77.541H1286.33C1256.83 77.541 1245.06 65.025 1250.12 41.036L1250.42 39.695C1255.78 14.216 1267.11 0.805996 1296.61 0.805996H1319.7C1349.21 0.805996 1360.83 14.216 1355.46 39.695L1355.17 41.036C1352.63 52.807 1347.42 64.28 1332.97 75.902L1297.95 104.063C1296.16 105.553 1294.67 106 1292.44 106H1268.45ZM1290.05 55.191H1309.27C1319.41 55.191 1326.41 53.552 1329.09 40.887L1329.24 39.993C1332.07 27.328 1325.22 25.838 1315.53 25.838H1296.31C1286.63 25.838 1279.18 27.328 1276.35 39.993L1276.2 40.887C1273.51 53.552 1279.92 55.191 1290.05 55.191Z" fill="#3272B2"/>
</svg>
