<svg width="157" height="49" viewBox="0 0 157 49" fill="none" xmlns="http://www.w3.org/2000/svg">
<path d="M2.94478 8.68779C4.98314 6.65103 8.28796 6.65103 10.3263 8.68779L25.5426 23.8922C27.5809 25.929 27.5809 29.2312 25.5426 31.268L10.3263 46.4724C8.28796 48.5092 4.98314 48.5092 2.94478 46.4724C0.906427 44.4357 0.906427 41.1334 2.94478 39.0966L14.4703 27.5801L2.94478 16.0636C0.906427 14.0268 0.906427 10.7246 2.94478 8.68779Z" fill="#1F5790"/>
<g filter="url(#filter0_i_236_1205)">
<path d="M0.518226 20.4073C1.20919 19.7169 2.32947 19.7169 3.02044 20.4073L8.94771 26.33C9.63868 27.0204 9.63868 28.1398 8.94771 28.8302L3.02044 34.7529C2.32947 35.4433 1.20919 35.4433 0.518226 34.7529C-0.172742 34.0625 -0.172742 32.9431 0.518226 32.2526L5.19439 27.5801L0.518226 22.9076C-0.172742 22.2172 -0.172742 21.0978 0.518226 20.4073Z" fill="#1F5790"/>
</g>
<path d="M17.5928 26.4935C14.7661 23.6691 14.7661 19.0897 17.5928 16.2652L29.0689 27.7324L23.9508 32.8466L17.5928 26.4935Z" fill="black" fill-opacity="0.25"/>
<path d="M39.6958 39.3122C37.6575 41.349 34.3527 41.349 32.3143 39.3122L17.098 24.1078C15.0597 22.071 15.0597 18.7688 17.098 16.732L32.3143 1.52758C34.3527 -0.50919 37.6575 -0.50919 39.6958 1.52758C41.7342 3.56435 41.7342 6.86659 39.6958 8.90336L28.1703 20.4199L39.6958 31.9364C41.7342 33.9732 41.7342 37.2754 39.6958 39.3122Z" fill="#FEC601"/>
<g filter="url(#filter1_i_236_1205)">
<path d="M39.6213 13.2471C40.3122 12.5567 41.4325 12.5567 42.1235 13.2471C42.8145 13.9375 42.8145 15.0569 42.1235 15.7474L37.4473 20.4199L42.1235 25.0924C42.8145 25.7828 42.8145 26.9022 42.1235 27.5927C41.4325 28.2831 40.3122 28.2831 39.6213 27.5927L33.694 21.67C33.003 20.9796 33.003 19.8602 33.694 19.1698L39.6213 13.2471Z" fill="#FEC601"/>
</g>
<path d="M57.8851 21.8785C54.2137 21.8785 52.7319 19.8011 53.4175 16.5083L54.4349 11.6685C55.1426 8.35358 56.8014 6.27624 60.4506 6.27624H65.5374C69.0098 6.27624 70.5801 8.02209 70.1377 11.0276C70.0935 11.3812 69.8723 11.5359 69.5406 11.5359H67.5722C67.1962 11.5359 67.0414 11.3149 67.0856 10.9171C67.2404 9.54695 66.6433 9.21546 65.2942 9.21546H60.2073C58.6813 9.21546 57.9514 9.63535 57.5312 11.558L56.4696 16.6188C56.0715 18.5193 56.6465 18.9392 58.1284 18.9392H63.2373C64.7191 18.9392 65.4932 18.5193 65.8913 16.6188L66.0461 15.9116H62.3084C61.9324 15.9116 61.7334 15.7127 61.8218 15.3149L62.1536 13.7238C62.2199 13.4144 62.4411 13.2376 62.7729 13.2376H69.0761C69.4521 13.2376 69.6511 13.4365 69.5627 13.8342L68.9876 16.5083C68.302 19.8011 66.6433 21.8785 62.9719 21.8785H57.8851Z" fill="#1F5790"/>
<path d="M80.9726 6.27624C85.5066 6.27624 87.2095 8.17679 86.4133 11.9116L86.3249 12.2652C85.7498 15.0497 84.644 16.9061 82.0564 17.547L83.8478 21.2376C84.0247 21.6133 83.8478 21.8785 83.4276 21.8785H81.238C80.9284 21.8785 80.7072 21.7459 80.5967 21.4586L79.0043 17.7901H73.3866L72.6347 21.3923C72.5683 21.7017 72.3471 21.8785 72.0154 21.8785H70.0691C69.6931 21.8785 69.4941 21.6796 69.5826 21.2818L72.6568 6.76242C72.7231 6.45303 72.9443 6.27624 73.276 6.27624H80.9726ZM83.317 11.9116C83.8478 9.65745 82.8968 9.21546 80.4861 9.21546H75.2223L74.0059 14.8729H79.2918C81.6361 14.8729 82.6977 14.4751 83.2507 12.221L83.317 11.9116Z" fill="#1F5790"/>
<path d="M99.6293 21.8785C99.2975 21.8785 99.0985 21.7017 99.0321 21.3923L98.4792 19.1823H89.522L87.9517 21.5249C87.7969 21.768 87.5757 21.8785 87.2882 21.8785H84.9438C84.5015 21.8785 84.3245 21.5912 84.5899 21.2155L94.7415 6.62983C94.8963 6.38673 95.1175 6.27624 95.405 6.27624H97.7715C98.1032 6.27624 98.3023 6.40883 98.3907 6.74032L102.283 21.2597C102.394 21.6575 102.217 21.8785 101.819 21.8785H99.6293ZM91.2249 16.663H97.8599L96.0906 9.48066L91.2249 16.663Z" fill="#1F5790"/>
<path d="M103.591 21.8785C103.215 21.8785 103.016 21.6796 103.105 21.2818L106.179 6.76242C106.245 6.45303 106.467 6.27624 106.798 6.27624H108.811C109.098 6.27624 109.32 6.38673 109.474 6.65193L115.689 17.547L117.989 6.76242C118.056 6.45303 118.277 6.27624 118.609 6.27624H120.555C120.931 6.27624 121.13 6.47513 121.042 6.87292L117.967 21.3923C117.901 21.7017 117.68 21.8785 117.348 21.8785H115.358C115.07 21.8785 114.849 21.768 114.694 21.5028L108.435 10.5193L106.157 21.3923C106.091 21.7017 105.869 21.8785 105.538 21.8785H103.591Z" fill="#1F5790"/>
<path d="M120.374 21.8785C119.998 21.8785 119.799 21.6796 119.888 21.2818L122.962 6.76242C123.028 6.45303 123.249 6.27624 123.581 6.27624H132.737C136.387 6.27624 137.935 8.22099 137.094 12.1326L136.254 16.1105C135.436 20 133.821 21.8785 130.172 21.8785H120.374ZM123.448 18.9613H130.083C131.742 18.9613 132.693 18.4972 133.224 16.0663L134.064 12.1547C134.573 9.72375 133.865 9.21546 132.14 9.21546H125.527L123.448 18.9613Z" fill="#1F5790"/>
<path d="M53.3512 41.768C52.9752 41.768 52.7761 41.5691 52.8646 41.1713L55.9388 26.6519C56.0052 26.3425 56.2263 26.1657 56.5581 26.1657H58.5043C58.8803 26.1657 59.0794 26.3646 58.9909 26.7624L56.4254 38.8287H65.4047C65.7807 38.8287 65.9798 39.0276 65.8913 39.4254L65.5153 41.2818C65.449 41.5912 65.2278 41.768 64.8961 41.768H53.3512Z" fill="#1F5790"/>
<path d="M71.389 41.768C67.7177 41.768 66.2359 39.6906 66.9215 36.3978L67.9388 31.558C68.6466 28.2431 70.3053 26.1657 73.9546 26.1657H79.6607C83.3099 26.1657 84.836 28.2431 84.1061 31.558L83.0888 36.3978C82.4031 39.6906 80.7444 41.768 77.073 41.768H71.389ZM71.6323 38.8287H77.3384C78.9529 38.8287 79.6386 38.232 80.0145 36.5083L81.0761 31.4475C81.4521 29.6796 81.054 29.105 79.3953 29.105H73.7113C72.0747 29.105 71.4333 29.6796 71.0352 31.4475L69.9736 36.5083C69.5976 38.232 70.0178 38.8287 71.6323 38.8287Z" fill="#1F5790"/>
<path d="M88.7076 41.768C85.0362 41.768 83.5544 39.6906 84.24 36.3978L85.2574 31.558C85.9651 28.2431 87.6239 26.1657 91.2731 26.1657H96.36C99.8323 26.1657 101.403 27.9116 100.96 30.9171C100.916 31.2707 100.695 31.4254 100.363 31.4254H98.3947C98.0187 31.4254 97.8639 31.2044 97.9081 30.8066C98.063 29.4365 97.4658 29.105 96.1167 29.105H91.0299C89.5038 29.105 88.774 29.5249 88.3537 31.4475L87.2921 36.5083C86.894 38.4088 87.4691 38.8287 88.9509 38.8287H94.0598C95.5417 38.8287 96.3158 38.4088 96.7138 36.5083L96.8687 35.8011H93.1309C92.755 35.8011 92.5559 35.6022 92.6444 35.2044L92.9761 33.6133C93.0425 33.3039 93.2636 33.1271 93.5954 33.1271H99.8987C100.275 33.1271 100.474 33.326 100.385 33.7238L99.8102 36.3978C99.1246 39.6906 97.4658 41.768 93.7944 41.768H88.7076Z" fill="#1F5790"/>
<path d="M100.892 41.768C100.516 41.768 100.317 41.5691 100.405 41.1713L103.479 26.6519C103.546 26.3425 103.767 26.1657 104.099 26.1657H106.023C106.399 26.1657 106.598 26.3646 106.509 26.7624L103.435 41.2818C103.369 41.5912 103.148 41.768 102.816 41.768H100.892Z" fill="#1F5790"/>
<path d="M110.262 41.768C106.723 41.768 105.175 40.1768 105.662 37.0166C105.706 36.6851 105.927 36.5083 106.259 36.5083H108.227C108.603 36.5083 108.758 36.7293 108.736 37.105C108.603 38.3646 109.112 38.8287 110.505 38.8287H114.84C116.521 38.8287 117.207 38.4088 117.494 37.1271C117.759 35.8895 117.273 35.5801 115.835 35.4696L111.301 35.0939C107.962 34.8287 106.458 33.547 107.077 30.6298C107.718 27.6464 109.134 26.1657 113.004 26.1657H117.03C120.568 26.1657 122.116 27.7569 121.63 30.9171C121.586 31.2486 121.364 31.4254 121.033 31.4254H119.064C118.688 31.4254 118.534 31.2044 118.556 30.8287C118.688 29.5691 118.18 29.105 116.764 29.105H112.783C111.08 29.105 110.417 29.5028 110.129 30.8066C109.864 32.0221 110.328 32.3094 111.832 32.442L116.366 32.7735C119.684 33.0166 121.143 34.3425 120.524 37.2376C119.883 40.221 118.489 41.768 114.619 41.768H110.262Z" fill="#1F5790"/>
<path d="M125.617 41.768C125.241 41.768 125.042 41.5691 125.13 41.1713L127.696 29.1271H122.985C122.609 29.1271 122.41 28.9282 122.498 28.5304L122.874 26.6519C122.94 26.3425 123.162 26.1657 123.493 26.1657H136.1C136.476 26.1657 136.675 26.3646 136.586 26.7624L136.21 28.6409C136.144 28.9503 135.923 29.1271 135.591 29.1271H130.77L128.182 41.2818C128.116 41.5912 127.895 41.768 127.563 41.768H125.617Z" fill="#1F5790"/>
<path d="M134.912 41.768C134.536 41.768 134.337 41.5691 134.425 41.1713L137.499 26.6519C137.566 26.3425 137.787 26.1657 138.119 26.1657H140.043C140.419 26.1657 140.618 26.3646 140.529 26.7624L137.455 41.2818C137.389 41.5912 137.168 41.768 136.836 41.768H134.912Z" fill="#1F5790"/>
<path d="M144.547 41.768C140.876 41.768 139.416 39.6906 140.102 36.3978L141.119 31.558C141.827 28.2431 143.508 26.1657 147.157 26.1657H152.089C155.76 26.1657 157.242 28.2431 156.534 31.558L156.512 31.6685C156.446 32 156.247 32.1768 155.915 32.1768H153.969C153.593 32.1768 153.372 32.0442 153.416 31.8011L153.482 31.4475C153.903 29.5249 153.35 29.105 151.824 29.105H146.892C145.366 29.105 144.636 29.5249 144.215 31.4475L143.154 36.5083C142.756 38.4088 143.331 38.8287 144.813 38.8287H149.745C151.249 38.8287 152.023 38.4088 152.421 36.5083L152.509 36.0221C152.576 35.7127 152.797 35.5359 153.129 35.5359H155.075C155.451 35.5359 155.65 35.6906 155.606 35.9558L155.517 36.3978C154.831 39.6906 153.305 41.768 149.634 41.768H144.547Z" fill="#1F5790"/>
<defs>
<filter id="filter0_i_236_1205" x="0" y="19.8895" width="10.1717" height="15.3812" filterUnits="userSpaceOnUse" color-interpolation-filters="sRGB">
<feFlood flood-opacity="0" result="BackgroundImageFix"/>
<feBlend mode="normal" in="SourceGraphic" in2="BackgroundImageFix" result="shape"/>
<feColorMatrix in="SourceAlpha" type="matrix" values="0 0 0 0 0 0 0 0 0 0 0 0 0 0 0 0 0 0 127 0" result="hardAlpha"/>
<feOffset dx="2.11765"/>
<feGaussianBlur stdDeviation="0.352941"/>
<feComposite in2="hardAlpha" operator="arithmetic" k2="-1" k3="1"/>
<feColorMatrix type="matrix" values="0 0 0 0 0 0 0 0 0 0 0 0 0 0 0 0 0 0 0.25 0"/>
<feBlend mode="normal" in2="shape" result="effect1_innerShadow_236_1205"/>
</filter>
<filter id="filter1_i_236_1205" x="32.4699" y="12.7293" width="10.1717" height="15.3812" filterUnits="userSpaceOnUse" color-interpolation-filters="sRGB">
<feFlood flood-opacity="0" result="BackgroundImageFix"/>
<feBlend mode="normal" in="SourceGraphic" in2="BackgroundImageFix" result="shape"/>
<feColorMatrix in="SourceAlpha" type="matrix" values="0 0 0 0 0 0 0 0 0 0 0 0 0 0 0 0 0 0 127 0" result="hardAlpha"/>
<feOffset dx="-2.11765"/>
<feGaussianBlur stdDeviation="0.352941"/>
<feComposite in2="hardAlpha" operator="arithmetic" k2="-1" k3="1"/>
<feColorMatrix type="matrix" values="0 0 0 0 0 0 0 0 0 0 0 0 0 0 0 0 0 0 0.25 0"/>
<feBlend mode="normal" in2="shape" result="effect1_innerShadow_236_1205"/>
</filter>
</defs>
</svg>
