<svg width="183" height="56" viewBox="0 0 183 56" fill="none" xmlns="http://www.w3.org/2000/svg">
<path d="M3.43275 10.1357C5.80922 7.75946 9.66224 7.75946 12.0387 10.1357L29.779 27.8742C32.1555 30.2504 32.1555 34.103 29.779 36.4793L12.0387 54.2177C9.66224 56.594 5.80922 56.594 3.43275 54.2177C1.05627 51.8415 1.05627 47.9889 3.43275 45.6127L16.8701 32.1767L3.43275 18.7408C1.05627 16.3645 1.05627 12.5119 3.43275 10.1357Z" fill="white"/>
<g filter="url(#filter0_i_236_1375)">
<path d="M0.604189 23.8087C1.40977 23.0032 2.71588 23.0032 3.52146 23.8087L10.4319 30.7185C11.2375 31.524 11.2375 32.8299 10.4319 33.6354L3.52146 40.5452C2.71588 41.3507 1.40977 41.3507 0.604189 40.5452C-0.201396 39.7397 -0.201396 38.4337 0.604189 37.6282L6.05603 32.177L0.604189 26.7257C-0.201396 25.9202 -0.201396 24.6142 0.604189 23.8087Z" fill="white"/>
</g>
<path d="M20.5101 30.9094C17.2145 27.6142 17.2145 22.2716 20.5101 18.9763L33.8899 32.3548L27.9228 38.3213L20.5101 30.9094Z" fill="black" fill-opacity="0.25"/>
<path d="M46.2816 45.8643C43.9051 48.2405 40.0521 48.2405 37.6756 45.8643L19.9353 28.1258C17.5588 25.7496 17.5588 21.897 19.9353 19.5207L37.6756 1.78226C40.0521 -0.593975 43.9051 -0.593975 46.2816 1.78226C48.6581 4.15849 48.6581 8.0111 46.2816 10.3873L32.8443 23.8233L46.2816 37.2592C48.6581 39.6355 48.6581 43.4881 46.2816 45.8643Z" fill="#FEC601"/>
<g filter="url(#filter1_i_236_1375)">
<path d="M46.1926 15.4547C46.9982 14.6492 48.3043 14.6492 49.1099 15.4547C49.9155 16.2602 49.9155 17.5662 49.1099 18.3717L43.6581 23.823L49.1099 29.2742C49.9155 30.0797 49.9155 31.3857 49.1099 32.1912C48.3043 32.9967 46.9982 32.9967 46.1926 32.1912L39.2822 25.2814C38.4766 24.4759 38.4766 23.17 39.2822 22.3645L46.1926 15.4547Z" fill="#FEC601"/>
</g>
<path d="M67.4867 25.5248C63.2063 25.5248 61.4787 23.1013 62.2781 19.2597L63.4642 13.6132C64.2893 9.74584 66.2232 7.32227 70.4778 7.32227H76.4084C80.4567 7.32227 82.2875 9.3591 81.7718 12.8655C81.7202 13.2781 81.4624 13.4585 81.0756 13.4585H78.7807C78.3423 13.4585 78.1618 13.2007 78.2134 12.7366C78.3939 11.1381 77.6977 10.7514 76.1248 10.7514H70.1942C68.415 10.7514 67.5641 11.2412 67.0741 13.4843L65.8364 19.3886C65.3723 21.6059 66.0427 22.0957 67.7703 22.0957H73.7268C75.4544 22.0957 76.3569 21.6059 76.821 19.3886L77.0015 18.5635H72.6438C72.2054 18.5635 71.9734 18.3315 72.0765 17.8674L72.4633 16.011C72.5406 15.6501 72.7985 15.4438 73.1853 15.4438H80.5341C80.9724 15.4438 81.2045 15.6759 81.1014 16.1399L80.431 19.2597C79.6316 23.1013 77.6977 25.5248 73.4173 25.5248H67.4867Z" fill="white"/>
<path d="M94.404 7.32227C99.69 7.32227 101.675 9.53958 100.747 13.8969L100.644 14.3094C99.9736 17.558 98.6844 19.7237 95.6675 20.4714L97.7561 24.7771C97.9624 25.2155 97.7561 25.5248 97.2662 25.5248H94.7134C94.3524 25.5248 94.0946 25.3702 93.9656 25.035L92.1091 20.755H85.5596L84.6829 24.9576C84.6056 25.3186 84.3477 25.5248 83.9609 25.5248H81.6918C81.2535 25.5248 81.0214 25.2928 81.1245 24.8287L84.7087 7.88949C84.7861 7.52853 85.0439 7.32227 85.4307 7.32227H94.404ZM97.1372 13.8969C97.7561 11.267 96.6473 10.7514 93.8367 10.7514H87.6998L86.2816 17.3517H92.4443C95.1776 17.3517 96.4153 16.8876 97.0599 14.2578L97.1372 13.8969Z" fill="white"/>
<path d="M116.155 25.5248C115.769 25.5248 115.537 25.3186 115.459 24.9576L114.815 22.3794H104.371L102.541 25.1123C102.36 25.3959 102.102 25.5248 101.767 25.5248H99.0339C98.5182 25.5248 98.3119 25.1897 98.6213 24.7514L110.457 7.73479C110.637 7.45118 110.895 7.32227 111.23 7.32227H113.989C114.376 7.32227 114.608 7.47696 114.711 7.8637L119.25 24.8029C119.379 25.267 119.172 25.5248 118.708 25.5248H116.155ZM106.357 19.4401H114.093L112.03 11.0608L106.357 19.4401Z" fill="white"/>
<path d="M120.775 25.5248C120.336 25.5248 120.104 25.2928 120.207 24.8287L123.792 7.88949C123.869 7.52853 124.127 7.32227 124.514 7.32227H126.86C127.195 7.32227 127.453 7.45118 127.634 7.76057L134.879 20.4714L137.561 7.88949C137.638 7.52853 137.896 7.32227 138.283 7.32227H140.552C140.99 7.32227 141.223 7.55431 141.119 8.0184L137.535 24.9576C137.458 25.3186 137.2 25.5248 136.813 25.5248H134.493C134.157 25.5248 133.9 25.3959 133.719 25.0865L126.422 12.2725L123.766 24.9576C123.689 25.3186 123.431 25.5248 123.044 25.5248H120.775Z" fill="white"/>
<path d="M140.341 25.5248C139.903 25.5248 139.671 25.2928 139.774 24.8287L143.358 7.88949C143.436 7.52853 143.694 7.32227 144.08 7.32227H154.755C159.01 7.32227 160.815 9.59114 159.835 14.1547L158.855 18.7956C157.901 23.3333 156.019 25.5248 151.764 25.5248H140.341ZM143.926 22.1215H151.661C153.595 22.1215 154.704 21.5801 155.323 18.744L156.303 14.1805C156.896 11.3444 156.071 10.7514 154.059 10.7514H146.349L143.926 22.1215Z" fill="white"/>
<path d="M62.2007 48.7293C61.7624 48.7293 61.5303 48.4972 61.6334 48.0331L65.2176 31.0939C65.2949 30.733 65.5528 30.5267 65.9396 30.5267H68.2087C68.647 30.5267 68.8791 30.7587 68.776 31.2228L65.7849 45.3002H76.2537C76.6921 45.3002 76.9241 45.5322 76.821 45.9963L76.3827 48.1621C76.3053 48.523 76.0474 48.7293 75.6607 48.7293H62.2007Z" fill="white"/>
<path d="M83.2307 48.7293C78.9503 48.7293 77.2227 46.3057 78.022 42.4641L79.2082 36.8177C80.0333 32.9503 81.9672 30.5267 86.2218 30.5267H92.8744C97.129 30.5267 98.9082 32.9503 98.0573 36.8177L96.8711 42.4641C96.0718 46.3057 94.1379 48.7293 89.8575 48.7293H83.2307ZM83.5143 45.3002H90.1669C92.0493 45.3002 92.8486 44.604 93.287 42.593L94.5247 36.6888C94.963 34.6261 94.4989 33.9558 92.565 33.9558H85.9381C84.03 33.9558 83.2822 34.6261 82.8181 36.6888L81.5804 42.593C81.1421 44.604 81.632 45.3002 83.5143 45.3002Z" fill="white"/>
<path d="M103.422 48.7293C99.1417 48.7293 97.414 46.3057 98.2134 42.4641L99.3995 36.8177C100.225 32.9503 102.159 30.5267 106.413 30.5267H112.344C116.392 30.5267 118.223 32.5635 117.707 36.07C117.656 36.4825 117.398 36.663 117.011 36.663H114.716C114.278 36.663 114.097 36.4051 114.149 35.9411C114.329 34.3425 113.633 33.9558 112.06 33.9558H106.129C104.35 33.9558 103.499 34.4457 103.009 36.6888L101.772 42.593C101.308 44.8103 101.978 45.3002 103.706 45.3002H109.662C111.39 45.3002 112.292 44.8103 112.756 42.593L112.937 41.7679H108.579C108.141 41.7679 107.909 41.5359 108.012 41.0718L108.399 39.2155C108.476 38.8545 108.734 38.6482 109.121 38.6482H116.469C116.908 38.6482 117.14 38.8803 117.037 39.3444L116.366 42.4641C115.567 46.3057 113.633 48.7293 109.353 48.7293H103.422Z" fill="white"/>
<path d="M117.627 48.7293C117.189 48.7293 116.957 48.4972 117.06 48.0331L120.644 31.0939C120.721 30.733 120.979 30.5267 121.366 30.5267H123.609C124.048 30.5267 124.28 30.7587 124.177 31.2228L120.592 48.1621C120.515 48.523 120.257 48.7293 119.87 48.7293H117.627Z" fill="white"/>
<path d="M128.552 48.7293C124.426 48.7293 122.621 46.8729 123.188 43.186C123.24 42.7993 123.498 42.593 123.885 42.593H126.179C126.618 42.593 126.798 42.8508 126.772 43.2891C126.618 44.7587 127.211 45.3002 128.835 45.3002H133.889C135.849 45.3002 136.648 44.8103 136.983 43.3149C137.293 41.8711 136.726 41.5101 135.05 41.3812L129.764 40.9429C125.87 40.6335 124.117 39.1381 124.839 35.7348C125.586 32.2541 127.237 30.5267 131.749 30.5267H136.442C140.568 30.5267 142.373 32.383 141.805 36.07C141.754 36.4567 141.496 36.663 141.109 36.663H138.814C138.376 36.663 138.195 36.4051 138.221 35.9668C138.376 34.4972 137.783 33.9558 136.133 33.9558H131.491C129.506 33.9558 128.732 34.4199 128.397 35.9411C128.088 37.3591 128.629 37.6943 130.382 37.849L135.668 38.2357C139.536 38.5193 141.238 40.0663 140.516 43.4438C139.768 46.9245 138.144 48.7293 133.631 48.7293H128.552Z" fill="white"/>
<path d="M146.453 48.7293C146.015 48.7293 145.783 48.4972 145.886 48.0331L148.877 33.9816H143.385C142.947 33.9816 142.714 33.7495 142.818 33.2854L143.256 31.0939C143.333 30.733 143.591 30.5267 143.978 30.5267H158.676C159.114 30.5267 159.346 30.7587 159.243 31.2228L158.805 33.4144C158.727 33.7753 158.469 33.9816 158.083 33.9816H152.461L149.444 48.1621C149.367 48.523 149.109 48.7293 148.722 48.7293H146.453Z" fill="white"/>
<path d="M157.29 48.7293C156.852 48.7293 156.62 48.4972 156.723 48.0331L160.307 31.0939C160.385 30.733 160.642 30.5267 161.029 30.5267H163.272C163.711 30.5267 163.943 30.7587 163.84 31.2228L160.256 48.1621C160.178 48.523 159.92 48.7293 159.534 48.7293H157.29Z" fill="white"/>
<path d="M168.524 48.7293C164.244 48.7293 162.542 46.3057 163.341 42.4641L164.527 36.8177C165.353 32.9503 167.312 30.5267 171.567 30.5267H177.317C181.597 30.5267 183.325 32.9503 182.5 36.8177L182.474 36.9466C182.397 37.3333 182.165 37.5396 181.778 37.5396H179.509C179.07 37.5396 178.813 37.3849 178.864 37.1013L178.942 36.6888C179.431 34.4457 178.787 33.9558 177.008 33.9558H171.257C169.478 33.9558 168.627 34.4457 168.137 36.6888L166.9 42.593C166.436 44.8103 167.106 45.3002 168.834 45.3002H174.584C176.337 45.3002 177.24 44.8103 177.704 42.593L177.807 42.0258C177.884 41.6648 178.142 41.4585 178.529 41.4585H180.798C181.236 41.4585 181.468 41.639 181.417 41.9484L181.314 42.4641C180.514 46.3057 178.735 48.7293 174.455 48.7293H168.524Z" fill="white"/>
<defs>
<filter id="filter0_i_236_1375" x="0" y="23.2046" width="12.4209" height="17.9448" filterUnits="userSpaceOnUse" color-interpolation-filters="sRGB">
<feFlood flood-opacity="0" result="BackgroundImageFix"/>
<feBlend mode="normal" in="SourceGraphic" in2="BackgroundImageFix" result="shape"/>
<feColorMatrix in="SourceAlpha" type="matrix" values="0 0 0 0 0 0 0 0 0 0 0 0 0 0 0 0 0 0 127 0" result="hardAlpha"/>
<feOffset dx="4.15432"/>
<feGaussianBlur stdDeviation="0.692387"/>
<feComposite in2="hardAlpha" operator="arithmetic" k2="-1" k3="1"/>
<feColorMatrix type="matrix" values="0 0 0 0 0 0 0 0 0 0 0 0 0 0 0 0 0 0 0.25 0"/>
<feBlend mode="normal" in2="shape" result="effect1_innerShadow_236_1375"/>
</filter>
<filter id="filter1_i_236_1375" x="37.2932" y="14.8506" width="12.4209" height="17.9448" filterUnits="userSpaceOnUse" color-interpolation-filters="sRGB">
<feFlood flood-opacity="0" result="BackgroundImageFix"/>
<feBlend mode="normal" in="SourceGraphic" in2="BackgroundImageFix" result="shape"/>
<feColorMatrix in="SourceAlpha" type="matrix" values="0 0 0 0 0 0 0 0 0 0 0 0 0 0 0 0 0 0 127 0" result="hardAlpha"/>
<feOffset dx="-4.15432"/>
<feGaussianBlur stdDeviation="0.692387"/>
<feComposite in2="hardAlpha" operator="arithmetic" k2="-1" k3="1"/>
<feColorMatrix type="matrix" values="0 0 0 0 0 0 0 0 0 0 0 0 0 0 0 0 0 0 0.25 0"/>
<feBlend mode="normal" in2="shape" result="effect1_innerShadow_236_1375"/>
</filter>
</defs>
</svg>
