<svg width="1361" height="103" viewBox="0 0 1361 103" fill="none" xmlns="http://www.w3.org/2000/svg">
<path d="M34.655 103C11.455 103 0.58 88.5 4.93 67.765L11.6 36.01C16.095 15.13 27.405 0.629996 50.605 0.629996H84.39C106.14 0.629996 117.305 12.52 115.13 31.08C114.695 33.835 112.955 35.14 110.345 35.14H93.235C90.335 35.14 89.175 33.4 89.175 30.355C89.03 25.86 86.42 25.28 82.07 25.28H48.285C42.775 25.28 39.585 26.295 37.7 35.14L30.595 68.635C28.71 77.335 31.9 78.35 36.975 78.35H70.76C75.835 78.35 79.605 77.335 81.49 68.635L82.215 65.3H64.235C61.19 65.3 59.74 63.415 60.32 60.515L63.075 47.03C63.655 44.565 65.25 43.115 67.86 43.115H107.735C110.78 43.115 112.23 45 111.65 47.9L107.445 67.765C103.095 88.5 91.64 103 68.44 103H34.655ZM192.1 0.629996C221.1 0.629996 233.57 14.26 228.35 39.055L227.77 41.81C224 59.355 217.04 72.405 201.525 77.48L211.385 97.925C212.835 100.97 211.53 103 208.195 103H189.49C187.025 103 185.43 101.985 184.56 99.665L176.44 79.655H147.005L142.945 99.085C142.365 101.55 140.77 103 138.16 103H121.195C118.15 103 116.7 101.115 117.28 98.215L137.145 4.545C137.725 2.07999 139.32 0.629996 141.93 0.629996H192.1ZM202.395 39.2C205.44 27.02 198.915 25.28 187.605 25.28H158.605L152.225 55.295H181.225C192.1 55.295 198.77 53.7 201.815 41.52L202.395 39.2ZM316.132 103C313.522 103 312.072 101.695 311.492 99.085L309.027 87.05H259.147L250.882 100.1C249.722 102.13 247.982 103 245.662 103H225.507C222.027 103 220.722 100.68 222.607 97.78L285.537 3.38499C286.842 1.49999 288.437 0.629996 290.757 0.629996H311.347C313.957 0.629996 315.552 1.935 316.132 4.4L338.897 98.215C339.622 101.115 338.172 103 335.127 103H316.132ZM272.342 66.17H304.822L296.992 27.02L272.342 66.17ZM354.13 103C351.085 103 349.635 101.115 350.215 98.215L370.08 4.545C370.66 2.07999 372.255 0.629996 374.865 0.629996H392.12C394.44 0.629996 396.035 1.64499 397.195 3.67499L430.4 66.025L443.595 4.545C444.175 2.07999 445.77 0.629996 448.38 0.629996H465.345C468.39 0.629996 469.84 2.515 469.26 5.41499L449.395 99.085C448.815 101.55 447.22 103 444.61 103H427.645C425.325 103 423.73 101.985 422.57 99.955L388.93 36.445L375.88 99.085C375.3 101.55 373.705 103 371.095 103H354.13ZM471.659 103C468.614 103 467.164 101.115 467.744 98.215L487.609 4.545C488.189 2.07999 489.784 0.629996 492.394 0.629996H551.844C574.899 0.629996 586.064 14.26 580.844 39.055L575.334 65.155C570.114 89.805 558.949 103 535.894 103H471.659ZM497.759 78.64H535.024C541.549 78.64 547.204 77.19 549.814 64.865L555.324 39.2C557.934 26.875 553.294 25.28 546.334 25.28H509.069L497.759 78.64Z" fill="#FEC601"/>
<path d="M624.73 103C621.685 103 620.235 101.115 620.815 98.215L640.68 4.545C641.26 2.07999 642.855 0.629996 645.465 0.629996H662.43C665.475 0.629996 666.925 2.515 666.345 5.41499L650.83 78.35H703.175C706.22 78.35 707.67 80.235 707.09 83.135L703.755 99.085C703.175 101.55 701.58 103 698.97 103H624.73ZM749.204 103C726.004 103 715.129 88.5 719.479 67.765L726.149 36.01C730.644 15.13 741.954 0.629996 765.154 0.629996H803.289C826.489 0.629996 837.509 15.13 833.014 36.01L826.344 67.765C821.994 88.5 810.539 103 787.339 103H749.204ZM751.524 78.35H789.659C796.039 78.35 798.794 75.885 800.389 68.635L807.494 35.14C809.089 27.6 807.639 25.28 800.969 25.28H762.834C756.309 25.28 753.844 27.6 752.249 35.14L745.144 68.635C743.549 75.885 745.144 78.35 751.524 78.35ZM869.396 103C846.196 103 835.321 88.5 839.671 67.765L846.341 36.01C850.836 15.13 862.146 0.629996 885.346 0.629996H919.131C940.881 0.629996 952.046 12.52 949.871 31.08C949.436 33.835 947.696 35.14 945.086 35.14H927.976C925.076 35.14 923.916 33.4 923.916 30.355C923.771 25.86 921.161 25.28 916.811 25.28H883.026C877.516 25.28 874.326 26.295 872.441 35.14L865.336 68.635C863.451 77.335 866.641 78.35 871.716 78.35H905.501C910.576 78.35 914.346 77.335 916.231 68.635L916.956 65.3H898.976C895.931 65.3 894.481 63.415 895.061 60.515L897.816 47.03C898.396 44.565 899.991 43.115 902.601 43.115H942.476C945.521 43.115 946.971 45 946.391 47.9L942.186 67.765C937.836 88.5 926.381 103 903.181 103H869.396ZM955.936 103C952.891 103 951.441 101.115 952.021 98.215L971.886 4.545C972.466 2.07999 974.061 0.629996 976.671 0.629996H993.491C996.536 0.629996 997.986 2.515 997.406 5.41499L977.541 99.085C976.961 101.55 975.366 103 972.756 103H955.936ZM1028.11 103C1006.07 103 995.048 91.98 997.513 72.55C997.948 69.795 999.688 68.49 1002.3 68.49H1019.55C1022.31 68.49 1023.47 70.085 1023.61 72.985C1023.9 76.61 1026.08 78.35 1030.43 78.35H1059.57C1065.95 78.35 1069.14 76.61 1070.3 71.39C1071.32 66.025 1069.43 64.285 1063.63 63.85L1034.2 61.53C1012.45 59.79 1002.59 49.93 1006.65 30.645C1010.85 10.925 1020.28 0.629996 1044.78 0.629996H1072.04C1094.08 0.629996 1105.25 11.65 1102.78 31.08C1102.35 33.835 1100.61 35.14 1098 35.14H1080.74C1077.99 35.14 1076.83 33.545 1076.68 30.645C1076.39 27.02 1074.07 25.28 1069.72 25.28H1042.75C1036.37 25.28 1033.33 27.02 1032.17 32.24C1031.01 37.46 1033.04 39.2 1038.84 39.635L1068.27 41.665C1089.88 43.115 1099.74 53.265 1095.68 72.405C1091.47 92.125 1082.05 103 1057.54 103H1028.11ZM1133.53 103C1130.49 103 1129.04 101.115 1129.62 98.215L1145.13 25.425H1118.02C1114.97 25.425 1113.52 23.54 1114.1 20.64L1117.44 4.545C1118.02 2.07999 1119.61 0.629996 1122.22 0.629996H1203.42C1206.47 0.629996 1207.92 2.515 1207.34 5.41499L1204 21.51C1203.42 23.975 1201.83 25.425 1199.22 25.425H1171.09L1155.43 99.085C1154.85 101.55 1153.25 103 1150.64 103H1133.53ZM1203.17 103C1200.13 103 1198.68 101.115 1199.26 98.215L1219.12 4.545C1219.7 2.07999 1221.3 0.629996 1223.91 0.629996H1240.73C1243.77 0.629996 1245.22 2.515 1244.64 5.41499L1224.78 99.085C1224.2 101.55 1222.6 103 1219.99 103H1203.17ZM1277.52 103C1254.32 103 1243.44 88.5 1247.79 67.765L1254.46 36.01C1258.96 15.13 1270.27 0.629996 1293.47 0.629996H1325.8C1349 0.629996 1360.02 15.13 1355.53 36.01V36.155C1355.09 38.765 1353.35 40.07 1350.74 40.07H1333.92C1330.88 40.07 1329.28 39.055 1329.57 37.605L1330.01 35.14C1331.89 26.295 1328.99 25.28 1323.48 25.28H1291.15C1285.64 25.28 1282.45 26.295 1280.56 35.14L1273.46 68.635C1271.57 77.335 1274.76 78.35 1279.84 78.35H1312.17C1317.25 78.35 1321.02 77.335 1322.9 68.635L1323.48 66.025C1324.06 63.415 1325.51 62.11 1328.12 62.11H1345.23C1348.28 62.11 1349.73 63.125 1349.44 64.865L1348.86 67.765C1344.51 88.5 1334.5 103 1311.3 103H1277.52Z" fill="#3272B2"/>
</svg>
