<svg width="1361" height="117" viewBox="0 0 1361 117" fill="none" xmlns="http://www.w3.org/2000/svg">
<path d="M39.755 117C13.355 117 0.98 100.5 5.93 76.905L13.52 40.77C18.635 17.01 31.505 0.509995 57.905 0.509995H101.3C127.7 0.509995 140.24 17.01 135.125 40.77L127.535 76.905C122.585 100.5 109.55 117 83.15 117H39.755ZM42.395 88.95H85.79C93.05 88.95 96.185 86.145 98 77.895L106.085 39.78C107.9 31.2 106.25 28.56 98.66 28.56H55.265C47.84 28.56 45.035 31.2 43.22 39.78L35.135 77.895C33.32 86.145 35.135 88.95 42.395 88.95ZM180.651 117C154.251 117 141.876 100.5 146.826 76.905L162.006 4.965C162.666 2.15999 164.481 0.509995 167.451 0.509995H186.756C190.221 0.509995 191.871 2.655 191.211 5.95499L176.031 77.895C173.886 87.795 177.516 88.95 183.291 88.95H221.736C227.511 88.95 231.801 87.795 233.946 77.895L249.291 4.965C249.951 2.15999 251.766 0.509995 254.736 0.509995H274.041C277.506 0.509995 279.156 2.655 278.496 5.95499L263.481 76.905C258.531 100.5 245.496 117 219.096 117H180.651ZM362.616 0.509995C395.616 0.509995 409.806 16.02 403.866 44.235L403.206 47.37C398.916 67.335 390.996 82.185 373.341 87.96L384.561 111.225C386.211 114.69 384.726 117 380.931 117H359.646C356.841 117 355.026 115.845 354.036 113.205L344.796 90.435H311.301L306.681 112.545C306.021 115.35 304.206 117 301.236 117H281.931C278.466 117 276.816 114.855 277.476 111.555L300.081 4.965C300.741 2.15999 302.556 0.509995 305.526 0.509995H362.616ZM374.331 44.4C377.796 30.54 370.371 28.56 357.501 28.56H324.501L317.241 62.715H350.241C362.616 62.715 370.206 60.9 373.671 47.04L374.331 44.4Z" fill="#FEC601"/>
<path d="M483.296 117C458.216 117 445.676 104.46 448.481 82.35C448.976 79.215 450.956 77.73 453.926 77.73H473.561C476.696 77.73 478.016 79.545 478.181 82.845C478.511 86.97 480.986 88.95 485.936 88.95H519.101C526.361 88.95 529.991 86.97 531.311 81.03C532.466 74.925 530.321 72.945 523.721 72.45L490.226 69.81C465.476 67.83 454.256 56.61 458.876 34.665C463.661 12.225 474.386 0.509995 502.271 0.509995H533.291C558.371 0.509995 571.076 13.05 568.271 35.16C567.776 38.295 565.796 39.78 562.826 39.78H543.191C540.056 39.78 538.736 37.965 538.571 34.665C538.241 30.54 535.601 28.56 530.651 28.56H499.961C492.701 28.56 489.236 30.54 487.916 36.48C486.596 42.42 488.906 44.4 495.506 44.895L529.001 47.205C553.586 48.855 564.806 60.405 560.186 82.185C555.401 104.625 544.676 117 516.791 117H483.296ZM574.387 117C570.922 117 569.272 114.855 569.932 111.555L592.537 4.965C593.197 2.15999 595.012 0.509995 597.982 0.509995H686.422C689.887 0.509995 691.537 2.655 690.877 5.95499L687.082 24.105C686.422 26.91 684.607 28.56 681.637 28.56H616.792L613.162 45.72H651.607C655.072 45.72 656.722 47.865 656.062 51.165L652.762 66.675C652.102 69.48 650.287 71.13 647.317 71.13H607.717L603.922 88.95H667.612C671.077 88.95 672.727 91.095 672.067 94.395L668.272 112.545C667.612 115.35 665.797 117 662.827 117H574.387ZM770.121 0.509995C803.121 0.509995 817.311 16.02 811.371 44.235L810.711 47.37C806.421 67.335 798.501 82.185 780.846 87.96L792.066 111.225C793.716 114.69 792.231 117 788.436 117H767.151C764.346 117 762.531 115.845 761.541 113.205L752.301 90.435H718.806L714.186 112.545C713.526 115.35 711.711 117 708.741 117H689.436C685.971 117 684.321 114.855 684.981 111.555L707.586 4.965C708.246 2.15999 710.061 0.509995 713.031 0.509995H770.121ZM781.836 44.4C785.301 30.54 777.876 28.56 765.006 28.56H732.006L724.746 62.715H757.746C770.121 62.715 777.711 60.9 781.176 47.04L781.836 44.4ZM851.443 117C848.473 117 846.658 115.35 845.998 112.545L824.053 5.95499C823.393 2.655 825.043 0.509995 828.508 0.509995H847.483C850.453 0.509995 852.103 1.995 852.763 4.965L869.263 86.97L920.083 3.80999C921.403 1.49999 923.383 0.509995 926.023 0.509995H948.628C952.588 0.509995 954.073 3.14999 951.928 6.45L884.278 113.7C882.793 115.845 880.978 117 878.338 117H851.443ZM946.926 117C943.461 117 941.811 114.855 942.471 111.555L965.076 4.965C965.736 2.15999 967.551 0.509995 970.521 0.509995H989.661C993.126 0.509995 994.776 2.655 994.116 5.95499L971.511 112.545C970.851 115.35 969.036 117 966.066 117H946.926ZM1031.53 117C1005.13 117 992.752 100.5 997.702 76.905L1005.29 40.77C1010.41 17.01 1023.28 0.509995 1049.68 0.509995H1086.47C1112.87 0.509995 1125.41 17.01 1120.3 40.77V40.935C1119.8 43.905 1117.82 45.39 1114.85 45.39H1095.71C1092.25 45.39 1090.43 44.235 1090.76 42.585L1091.26 39.78C1093.4 29.715 1090.1 28.56 1083.83 28.56H1047.04C1040.77 28.56 1037.14 29.715 1034.99 39.78L1026.91 77.895C1024.76 87.795 1028.39 88.95 1034.17 88.95H1070.96C1076.74 88.95 1081.03 87.795 1083.17 77.895L1083.83 74.925C1084.49 71.955 1086.14 70.47 1089.11 70.47H1108.58C1112.05 70.47 1113.7 71.625 1113.37 73.605L1112.71 76.905C1107.76 100.5 1096.37 117 1069.97 117H1031.53ZM1126.75 117C1123.29 117 1121.64 114.855 1122.3 111.555L1144.9 4.965C1145.56 2.15999 1147.38 0.509995 1150.35 0.509995H1238.79C1242.25 0.509995 1243.9 2.655 1243.24 5.95499L1239.45 24.105C1238.79 26.91 1236.97 28.56 1234 28.56H1169.16L1165.53 45.72H1203.97C1207.44 45.72 1209.09 47.865 1208.43 51.165L1205.13 66.675C1204.47 69.48 1202.65 71.13 1199.68 71.13H1160.08L1156.29 88.95H1219.98C1223.44 88.95 1225.09 91.095 1224.43 94.395L1220.64 112.545C1219.98 115.35 1218.16 117 1215.19 117H1126.75ZM1272.36 117C1247.28 117 1234.74 104.46 1237.55 82.35C1238.04 79.215 1240.02 77.73 1242.99 77.73H1262.63C1265.76 77.73 1267.08 79.545 1267.25 82.845C1267.58 86.97 1270.05 88.95 1275 88.95H1308.17C1315.43 88.95 1319.06 86.97 1320.38 81.03C1321.53 74.925 1319.39 72.945 1312.79 72.45L1279.29 69.81C1254.54 67.83 1243.32 56.61 1247.94 34.665C1252.73 12.225 1263.45 0.509995 1291.34 0.509995H1322.36C1347.44 0.509995 1360.14 13.05 1357.34 35.16C1356.84 38.295 1354.86 39.78 1351.89 39.78H1332.26C1329.12 39.78 1327.8 37.965 1327.64 34.665C1327.31 30.54 1324.67 28.56 1319.72 28.56H1289.03C1281.77 28.56 1278.3 30.54 1276.98 36.48C1275.66 42.42 1277.97 44.4 1284.57 44.895L1318.07 47.205C1342.65 48.855 1353.87 60.405 1349.25 82.185C1344.47 104.625 1333.74 117 1305.86 117H1272.36Z" fill="#3272B2"/>
</svg>
