<svg width="1030" height="103" viewBox="0 0 1030 103" fill="none" xmlns="http://www.w3.org/2000/svg">
<path d="M34.315 103C11.115 103 0.24 88.5 4.59 67.765L11.26 36.01C15.755 15.13 27.065 0.629996 50.265 0.629996H82.6C105.8 0.629996 116.82 15.13 112.325 36.01V36.155C111.89 38.765 110.15 40.07 107.54 40.07H90.72C87.675 40.07 86.08 39.055 86.37 37.605L86.805 35.14C88.69 26.295 85.79 25.28 80.28 25.28H47.945C42.435 25.28 39.245 26.295 37.36 35.14L30.255 68.635C28.37 77.335 31.56 78.35 36.635 78.35H68.97C74.045 78.35 77.815 77.335 79.7 68.635L80.28 66.025C80.86 63.415 82.31 62.11 84.92 62.11H102.03C105.075 62.11 106.525 63.125 106.235 64.865L105.655 67.765C101.305 88.5 91.3 103 68.1 103H34.315ZM148.446 103C125.246 103 114.371 88.5 118.721 67.765L125.391 36.01C129.886 15.13 141.196 0.629996 164.396 0.629996H202.531C225.731 0.629996 236.751 15.13 232.256 36.01L225.586 67.765C221.236 88.5 209.781 103 186.581 103H148.446ZM150.766 78.35H188.901C195.281 78.35 198.036 75.885 199.631 68.635L206.736 35.14C208.331 27.6 206.881 25.28 200.211 25.28H162.076C155.551 25.28 153.086 27.6 151.491 35.14L144.386 68.635C142.791 75.885 144.386 78.35 150.766 78.35ZM239.348 103C236.303 103 234.853 101.115 235.433 98.215L255.298 4.545C255.878 2.07999 257.473 0.629996 260.083 0.629996H277.338C279.658 0.629996 281.253 1.64499 282.413 3.67499L315.618 66.025L328.813 4.545C329.393 2.07999 330.988 0.629996 333.598 0.629996H350.563C353.608 0.629996 355.058 2.515 354.478 5.41499L334.613 99.085C334.033 101.55 332.438 103 329.828 103H312.863C310.543 103 308.948 101.985 307.788 99.955L274.148 36.445L261.098 99.085C260.518 101.55 258.923 103 256.313 103H239.348ZM382.253 103C379.208 103 377.758 101.115 378.338 98.215L393.853 25.425H366.738C363.693 25.425 362.243 23.54 362.823 20.64L366.158 4.545C366.738 2.07999 368.333 0.629996 370.943 0.629996H452.143C455.188 0.629996 456.638 2.515 456.058 5.41499L452.723 21.51C452.143 23.975 450.548 25.425 447.938 25.425H419.808L404.148 99.085C403.568 101.55 401.973 103 399.363 103H382.253ZM522.078 103C519.468 103 518.018 101.695 517.438 99.085L514.973 87.05H465.093L456.828 100.1C455.668 102.13 453.928 103 451.608 103H431.453C427.973 103 426.668 100.68 428.553 97.78L491.483 3.38499C492.788 1.49999 494.383 0.629996 496.703 0.629996H517.293C519.903 0.629996 521.498 1.935 522.078 4.4L544.843 98.215C545.568 101.115 544.118 103 541.073 103H522.078ZM478.288 66.17H510.768L502.938 27.02L478.288 66.17ZM587.694 103C564.494 103 553.619 88.5 557.969 67.765L564.639 36.01C569.134 15.13 580.444 0.629996 603.644 0.629996H635.979C659.179 0.629996 670.199 15.13 665.704 36.01V36.155C665.269 38.765 663.529 40.07 660.919 40.07H644.099C641.054 40.07 639.459 39.055 639.749 37.605L640.184 35.14C642.069 26.295 639.169 25.28 633.659 25.28H601.324C595.814 25.28 592.624 26.295 590.739 35.14L583.634 68.635C581.749 77.335 584.939 78.35 590.014 78.35H622.349C627.424 78.35 631.194 77.335 633.079 68.635L633.659 66.025C634.239 63.415 635.689 62.11 638.299 62.11H655.409C658.454 62.11 659.904 63.125 659.614 64.865L659.034 67.765C654.684 88.5 644.679 103 621.479 103H587.694ZM696.75 103C693.705 103 692.255 101.115 692.835 98.215L708.35 25.425H681.235C678.19 25.425 676.74 23.54 677.32 20.64L680.655 4.545C681.235 2.07999 682.83 0.629996 685.44 0.629996H766.64C769.685 0.629996 771.135 2.515 770.555 5.41499L767.22 21.51C766.64 23.975 765.045 25.425 762.435 25.425H734.305L718.645 99.085C718.065 101.55 716.47 103 713.86 103H696.75ZM835.554 103C812.354 103 801.479 88.5 805.829 67.765L819.169 4.545C819.749 2.07999 821.344 0.629996 823.954 0.629996H840.919C843.964 0.629996 845.414 2.515 844.834 5.41499L831.494 68.635C829.609 77.335 832.799 78.35 837.874 78.35H871.659C876.734 78.35 880.504 77.335 882.389 68.635L895.874 4.545C896.454 2.07999 898.049 0.629996 900.659 0.629996H917.624C920.669 0.629996 922.119 2.515 921.539 5.41499L908.344 67.765C903.994 88.5 892.539 103 869.339 103H835.554ZM952.833 103C930.793 103 919.773 91.98 922.238 72.55C922.673 69.795 924.413 68.49 927.023 68.49H944.278C947.033 68.49 948.193 70.085 948.338 72.985C948.628 76.61 950.803 78.35 955.153 78.35H984.298C990.678 78.35 993.868 76.61 995.028 71.39C996.043 66.025 994.158 64.285 988.358 63.85L958.923 61.53C937.173 59.79 927.313 49.93 931.373 30.645C935.578 10.925 945.003 0.629996 969.508 0.629996H996.768C1018.81 0.629996 1029.97 11.65 1027.51 31.08C1027.07 33.835 1025.33 35.14 1022.72 35.14H1005.47C1002.71 35.14 1001.55 33.545 1001.41 30.645C1001.12 27.02 998.798 25.28 994.448 25.28H967.478C961.098 25.28 958.053 27.02 956.893 32.24C955.733 37.46 957.763 39.2 963.563 39.635L992.998 41.665C1014.6 43.115 1024.46 53.265 1020.4 72.405C1016.2 92.125 1006.77 103 982.268 103H952.833Z" fill="#FEC601"/>
</svg>
